<svg id="b7cc7876-77cd-409e-9873-4b201ae07abe" data-name="Layer 1" xmlns="http://www.w3.org/2000/svg" width="888" height="697.20852" viewBox="0 0 888 697.20852"><title>by_the_road</title><circle cx="68.80851" cy="148.19558" r="47.49974" fill="#ff6584"/><path d="M398.25391,480.59775,443.50222,413.309l-45.15577,74.52775.09443,7.57168q-4.955.03779-9.81366-.165l2.24421-97.32893-.06148-.75085.0828-.14508.2148-9.197-49.55224-71.9441,49.49378,65.06067.17564,1.944,1.6951-73.53581L350.12,234.75671l42.92168,61.67142-.448-152.34724.001-.50707.01456.49868,2.84115,120.07013,39.00689-48.77255L395.57808,274.4864l.85135,65.77607,35.89436-64.19495-35.76244,73.86516.47391,36.57481,52.20009-89.4228-52.0414,102.18219Z" transform="translate(-156 -101.39574)" fill="#3f3d56"/><path d="M555.45517,529.41966l45.24832-67.28878-45.15578,74.52776.09443,7.57168q-4.955.03778-9.81366-.165l2.24422-97.32893-.06149-.75086.08281-.14507.2148-9.197-49.55224-71.94409L548.25035,429.76l.17564,1.944,1.6951-73.53581-42.79978-74.58954L550.243,345.25l-.448-152.34724.001-.50706.01456.49868,2.84115,120.07013L591.65853,264.192l-38.87919,59.11633.85135,65.77607,35.89436-64.19495L553.76261,398.7546l.47391,36.57481,52.20009-89.4228L554.39522,448.0888Z" transform="translate(-156 -101.39574)" fill="#e6e6e6"/><path d="M260.7028,438.41966l45.24832-67.28878-45.15578,74.52776.09443,7.57168q-4.955.03778-9.81366-.165l2.24421-97.32893-.06148-.75086.08281-.14507.2148-9.197L204.0042,273.69935,253.498,338.76l.17564,1.944,1.6951-73.53581-42.79978-74.58954L255.49061,254.25l-.448-152.34724.001-.50706.01456.49868,2.84115,120.07013L296.90616,173.192,258.027,232.30832l.85135,65.77607,35.89436-64.19495L259.01024,307.7546l.47391,36.57481,52.20009-89.4228L259.64284,357.0888Z" transform="translate(-156 -101.39574)" fill="#3f3d56"/><path d="M707.0421,599.21313l45.24832-67.28878-45.15577,74.52776.09442,7.57168q-4.95495.03779-9.81365-.165l2.24421-97.32893-.06149-.75086.08281-.14508.2148-9.197-49.55224-71.94409,49.49378,65.06066.17563,1.944,1.69511-73.53581L658.90824,353.3721l42.92168,61.67141-.448-152.34724.001-.50706.01457.49868L704.23858,382.758l39.00689-48.77255-38.87919,59.11633.85135,65.77607L741.112,394.68291l-35.76244,73.86516.47391,36.57481,52.20009-89.42281-52.0414,102.1822Z" transform="translate(-156 -101.39574)" fill="#e6e6e6"/><path d="M1044,798.60426H156v-379.903c.90762,0,1.82467,0,2.73229.00936,109.86313.131,215.01955,8.80512,312.05386,24.572q7.2846,1.165,14.50369,2.41418c.42108.0655.8328.131,1.24452.20589q30.75255,5.26343,60.326,11.48126,5.27739,1.12294,10.52687,2.25513,21.25017,4.60369,41.81741,9.69406,9.68468,2.38611,19.21034,4.88444c92.41189,24.16034,173.698,55.348,239.79745,91.82239a597.57987,597.57987,0,0,1,68.04566,43.38941C1001.16263,665.13289,1044,729.72579,1044,798.60426Z" transform="translate(-156 -101.39574)" fill="#3f3d56"/><path d="M840.59279,798.60426H156V505.72333c103.1446,0,200.965,9.75958,288.68891,27.23885q12.87082,2.55453,25.44228,5.3523,5.53013,1.20715,11.01341,2.48906,17.06761,3.94406,33.555,8.29984,23.03276,6.06349,44.83041,12.87555,12.89894,4.04232,25.32063,8.30921c.917.31811,1.834.63628,2.74166.9544q9.75492,3.38268,19.201,6.93373c56.73282,21.25026,105.18446,46.44924,143.02506,74.5864C807.56182,695.7029,840.59279,745.50205,840.59279,798.60426Z" transform="translate(-156 -101.39574)" fill="#6970e8"/><path d="M746.60889,749.51627l-1.47846,1.15092a183.1718,183.1718,0,0,1,20.94146,33.54567l1.69365-.80471A185.611,185.611,0,0,0,746.60889,749.51627ZM690.49368,695.993c-.57084-.4304-1.14161-.85149-1.71239-1.27257l-1.11351,1.5065c.57078.42108,1.14155.84217,1.703,1.26325a335.31513,335.31513,0,0,1,28.91377,24.0106l1.282-1.36612A338.72516,338.72516,0,0,0,690.49368,695.993ZM620.642,653.30535l-.85148,1.675c12.16438,6.18511,23.87021,12.66029,34.78076,19.24775l.96377-1.60005C644.58717,666.02184,632.84381,659.51856,620.642,653.30535Zm-73.07054-31.89872-.655,1.74979c12.65092,4.74412,25.068,9.75957,36.88614,14.89668l.7392-1.71239C572.69564,631.18487,560.25992,626.16005,547.57148,621.40663ZM499.92454,605.0689c-9.17006-2.87267-18.63956-5.67984-28.15584-8.34662l-.50532,1.80594c9.4976,2.65741,18.94836,5.46458,28.09975,8.31858,3.35921,1.05737,6.68107,2.11468,9.9935,3.19078l.57078-1.77789Q504.95875,606.64561,499.92454,605.0689Zm-78.45088-21.19412c-3.72422-.87021-7.439-1.71233-11.02283-2.49836-5.35231-1.18839-10.77954-2.34867-16.15057-3.46218l-.37426,1.834c5.3523,1.10415,10.77948,2.2738,16.12247,3.46219,3.58383.77666,7.27995,1.61878,10.99473,2.47962,3.92068.90768,7.86009,1.84341,11.71526,2.76976l.43976-1.8153C429.34305,585.70882,425.39433,584.77309,421.47366,583.87478ZM315.78387,564.15917l-.2714,1.85271c13.19371,1.90886,26.42483,4.0236,39.30968,6.27872l.32754-1.8434C342.23674,568.19213,328.99625,566.07739,315.78387,564.15917Zm-79.19015-9.22626-.16842,1.86208c13.24043,1.18838,26.56516,2.55456,39.60912,4.07042l.2152-1.86207C263.18692,557.48747,249.84352,556.1213,236.59372,554.93291ZM157.02,549.90809l-.06551,1.87144c13.2498.496,26.63061,1.16966,39.76818,2.00246l.11228-1.87144C183.688,551.08711,170.29786,550.41342,157.02,549.90809Z" transform="translate(-156 -101.39574)" fill="#fff"/><path d="M634.996,798.60426H156V593.68118c177.6936,0,332.79879,41.39633,415.47922,102.88263C611.88368,726.60982,634.996,761.45609,634.996,798.60426Z" transform="translate(-156 -101.39574)" fill="#3f3d56"/><path d="M1044,798.60426H156L571.47922,696.56381l178.33919-43.80114,176.4397-43.33333C1001.16263,665.13289,1044,729.72579,1044,798.60426Z" transform="translate(-156 -101.39574)" opacity="0.2"/><polygon points="676.351 294.712 678.331 291.247 668.431 289.267 667.441 294.217 668.926 298.177 676.351 294.712" fill="#6970e8"/><polygon points="676.351 294.712 678.331 291.247 668.431 289.267 667.441 294.217 668.926 298.177 676.351 294.712" opacity="0.2"/><circle cx="670.6583" cy="279.61317" r="12.87115" fill="#ffb8b8"/><polygon points="659.767 279.613 649.371 296.94 664.718 305.851 672.638 287.534 659.767 279.613" fill="#ffb8b8"/><path d="M814.77725,401.30572l-13.36619-5.44549s-20.29681,3.46531-22.277,9.90088-1.98017,58.4152-1.98017,58.4152-4.95044,12.87115,1.98017,13.36619c0,0-1.98017,2.97027,0,3.46531s22.277,0,30.19769,2.47522,23.76212,4.4554,23.76212,1.98018v-4.4554s3.4653-3.46531,1.48513-9.40584-4.4554-18.81167-4.4554-18.81167,14.85132-32.67291,13.36619-36.63326-19.61712-16.20651-19.61712-16.20651Z" transform="translate(-156 -101.39574)" fill="#6970e8"/><polygon points="628.085 362.781 628.58 366.741 635.51 358.325 633.035 358.325 628.085 362.781" fill="#ffb8b8"/><path d="M814.77725,401.30572,800.421,397.84041s-2.97027-2.47522-2.97027-5.44548,4.4554-7.42567,7.42566-10.39593a2.74,2.74,0,0,1,1.99009-.82674c2.94056-.02475,6.50486,3.83166,6.50486,3.83166l-3.9554,6.59892-.17821.29209Z" transform="translate(-156 -101.39574)" fill="#6970e8"/><path d="M825.843,395.39424l8.48853-2.75179s2.72274,10.64344-.24753,11.13849-19.30671-.99009-19.30671-.99009Z" transform="translate(-156 -101.39574)" fill="#6970e8"/><path d="M780.12416,478.53259l-6.43557,36.63326s-2.47522,4.4554-1.48513,6.43557,1.48513,1.98018,0,2.97027-3.46531,0-2.97027,2.47522a25.2684,25.2684,0,0,1,.495,4.45539L755.867,579.02653s-8.91079,3.96036-2.47522,6.43558,12.87115,4.45539,14.35628,1.98017,0-5.44548,0-5.44548l22.772-54.45485s3.46531-4.95044,3.46531-7.9207,11.386-24.25716,11.386-24.25716.495,21.28689.99009,22.772-.99009,4.4554-.99009,6.43558-.99009,1.98017,0,2.97026.99009,12.3761.99009,12.3761-5.94053,44.05892-2.47522,44.554,13.36619-.495,13.36619-2.47522a2.47009,2.47009,0,0,0-1.48514-2.47522l6.43558-37.62335a7.877,7.877,0,0,1,.495-4.4554c.99009-1.98017.99009-1.98017.99009-2.97026s-.495-1.48513,0-1.98018a2.4443,2.4443,0,0,0,.495-1.48513s-.99009-2.97026-.495-3.46531,11.386-37.62335,7.9207-42.07874S780.12416,478.53259,780.12416,478.53259Z" transform="translate(-156 -101.39574)" fill="#2f2e41"/><path d="M804.38132,582.98689l-3.46531,7.9207s-7.9207,8.91079-1.98017,10.891,7.9207,1.48513,7.9207,1.48513,2.47522.495,2.47522,1.48513,19.80176,8.41575,21.2869,1.98018-15.34637-18.31663-15.34637-18.31663v-5.94053Z" transform="translate(-156 -101.39574)" fill="#2f2e41"/><path d="M766.19624,586.65323l.74962,8.613s4.65422,10.97625-1.6076,10.95216-7.97961-1.12652-7.97961-1.12652-2.50352-.32272-2.82023.61535-21.45335,1.63952-20.80189-4.933,20.39908-12.44537,20.39908-12.44537l1.90022-5.62842Z" transform="translate(-156 -101.39574)" fill="#2f2e41"/><path d="M814.12187,384.53243c.795-.05335,1.32516-.92,1.54517-1.74449a8.57022,8.57022,0,0,1,.72514-2.43638c1.23068-1.94146,4.43068-1.15726,5.73018-3.046.79921-1.16161.63194-3.05306,1.78568-3.79215a2.80469,2.80469,0,0,1,2.46009.06688,26.88439,26.88439,0,0,1,8.47313,5.04641l1.03368-.84163,1.29122,2.5813c.50058-.60369,1.466-.13566,1.88614.53545s.624,1.5288,1.223,2.0176c.95473.7791,2.4462.11922,3.0245-1.01053a6.23906,6.23906,0,0,0,.2824-3.78273,27.09676,27.09676,0,0,0-3.14278-9.07011l1.18134-.70879-1.52729-.21813.5845-1.3261-1.59986-.0187.63174-1.13358c-2.15067.738-4.37311-.61372-6.42724-1.62148a18.35613,18.35613,0,0,0-11.03172-1.86843,13.94445,13.94445,0,0,0-9.43234,6.127,12.53485,12.53485,0,0,0-1.7527,9.33358C811.8049,380.40525,815.03178,380.83855,814.12187,384.53243Z" transform="translate(-156 -101.39574)" fill="#2f2e41"/><path d="M782.10434,403.78094s-2.97027-.495-4.95044,3.46531-16.8315,35.64317-9.40584,45.54405,14.35628,12.87114,14.35628,12.87114l1.48513.495,7.42566-7.92071-2.47522-3.4653s0-3.46531-1.98018-3.96036-1.98017.99009-2.47522-.99008,1.98018-.495-.495-2.47522-.495-2.97027-.495-2.97027Z" transform="translate(-156 -101.39574)" fill="#6970e8"/><polygon points="678.579 368.474 678.084 372.434 671.153 364.018 673.629 364.018 678.579 368.474" fill="#ffb8b8"/><path d="M833.83644,414.42439s6.93062-3.46531,8.91079.495,15.59389,33.663,8.16823,43.56388-14.35628,12.87114-14.35628,12.87114l-1.48513.495-7.42566-7.92071,2.47522-3.46531s0-3.46531,1.98018-3.96035,1.98017.99009,2.47522-.99009-1.98018-.495.495-2.47522.495-2.97026.495-2.97026Z" transform="translate(-156 -101.39574)" fill="#6970e8"/><polygon points="630.807 321.939 625.362 343.721 631.797 351.642 628.827 341.741 630.807 321.939" opacity="0.2"/><path d="M813.37131,385.00392l-3.9554,6.59892c-2.4851-.86138-2.693-6.62862-2.54946-10.43058C809.807,381.14751,813.37131,385.00392,813.37131,385.00392Z" transform="translate(-156 -101.39574)" opacity="0.2"/></svg>